<svg xmlns="http://www.w3.org/2000/svg" version="1.1" xmlns:xlink="http://www.w3.org/1999/xlink" xmlns:svgjs="http://svgjs.com/svgjs" width="338" height="266"><svg width="338" height="266" viewBox="0 0 338 266" fill="none" xmlns="http://www.w3.org/2000/svg">
<path d="M7.87695 8.86092V257.149C7.87695 257.696 8.31427 258.133 8.97025 258.133H328.979C329.526 258.133 330.073 257.696 330.073 257.149V91.7331C330.073 91.5145 329.963 91.1864 329.745 90.9678L241.625 8.20493C241.406 7.98627 241.187 7.87695 240.859 7.87695H8.97025C8.31427 7.87695 7.87695 8.31427 7.87695 8.86092Z" fill="white"></path>
<path d="M8.96506 0H240.854C243.15 0 245.337 0.874654 246.977 2.40527L335.097 85.1681C336.846 86.8081 337.83 89.2133 337.83 91.6186V257.144C337.83 262.064 333.785 266 328.865 266H8.96506C4.04521 266 0 262.064 0 257.144V8.85574C0 4.04522 4.04521 0 8.96506 0ZM322.196 250.366V94.6798L238.121 15.7436H15.7435V250.366H322.196Z" fill="#303F49"></path>
<path d="M322.529 96.5303H244.249C242.609 96.5303 241.188 95.2183 241.188 93.4691V15.1888C241.188 12.4555 244.467 11.1435 246.326 13.1115L324.606 91.3918C326.574 93.2504 325.262 96.5303 322.529 96.5303Z" fill="#CBDAE2"></path>
<path d="M240.095 5.13216C244.14 3.49221 248.841 4.36686 251.903 7.53743L330.183 85.8177C333.244 88.9883 334.228 93.5802 332.588 97.6254C330.948 101.671 327.012 104.295 322.53 104.295H244.249C238.236 104.295 233.426 99.3746 233.426 93.4708V15.1905C233.426 10.708 236.05 6.77211 240.095 5.13216ZM310.941 88.6603L249.06 26.7795V88.6603H310.941Z" fill="#303F49"></path>
<path d="M239.431 15.7422H15.7422V71.6098H239.431V15.7422Z" fill="#303F49"></path>
<path d="M42.973 59.577C38.1624 59.577 34.2266 55.6411 34.2266 50.8306V27.5433C34.2266 22.7328 38.1624 18.7969 42.973 18.7969C47.7835 18.7969 51.7194 22.7328 51.7194 27.5433V50.8306C51.7194 55.6411 47.7835 59.577 42.973 59.577Z" fill="white"></path>
<path d="M87.9027 59.577C83.0921 59.577 79.1562 55.6411 79.1562 50.8306V27.5433C79.1562 22.7328 83.0921 18.7969 87.9027 18.7969C92.7132 18.7969 96.6491 22.7328 96.6491 27.5433V50.8306C96.6491 55.6411 92.7132 59.577 87.9027 59.577Z" fill="white"></path>
<path d="M132.842 59.577C128.032 59.577 124.096 55.6411 124.096 50.8306V27.5433C124.096 22.7328 128.032 18.7969 132.842 18.7969C137.653 18.7969 141.589 22.7328 141.589 27.5433V50.8306C141.479 55.6411 137.543 59.577 132.842 59.577Z" fill="white"></path>
<path d="M177.666 59.577C172.856 59.577 168.92 55.6411 168.92 50.8306V27.5433C168.92 22.7328 172.856 18.7969 177.666 18.7969C182.477 18.7969 186.413 22.7328 186.413 27.5433V50.8306C186.413 55.6411 182.477 59.577 177.666 59.577Z" fill="white"></path>
<path d="M222.606 59.577C217.795 59.577 213.859 55.6411 213.859 50.8306V27.5433C213.859 22.7328 217.795 18.7969 222.606 18.7969C227.416 18.7969 231.352 22.7328 231.352 27.5433V50.8306C231.243 55.6411 227.416 59.577 222.606 59.577Z" fill="white"></path>
<path d="M325.584 194.605H15.7422V250.473H325.584V194.605Z" fill="#303F49"></path>
<path d="M32.9163 247.305C28.1058 247.305 24.1699 243.37 24.1699 238.559V215.272C24.1699 210.461 28.1058 206.525 32.9163 206.525C37.7268 206.525 41.6627 210.461 41.6627 215.272V238.559C41.5534 243.37 37.7268 247.305 32.9163 247.305Z" fill="white"></path>
<path d="M77.7405 247.305C72.93 247.305 68.9941 243.37 68.9941 238.559V215.272C68.9941 210.461 72.93 206.525 77.7405 206.525C82.5511 206.525 86.4869 210.461 86.4869 215.272V238.559C86.4869 243.37 82.5511 247.305 77.7405 247.305Z" fill="white"></path>
<path d="M122.68 247.305C117.869 247.305 113.934 243.37 113.934 238.559V215.272C113.934 210.461 117.869 206.525 122.68 206.525C127.491 206.525 131.426 210.461 131.426 215.272V238.559C131.426 243.37 127.491 247.305 122.68 247.305Z" fill="white"></path>
<path d="M167.506 247.305C162.696 247.305 158.76 243.37 158.76 238.559V215.272C158.76 210.461 162.696 206.525 167.506 206.525C172.317 206.525 176.253 210.461 176.253 215.272V238.559C176.253 243.37 172.317 247.305 167.506 247.305Z" fill="white"></path>
<path d="M212.436 247.305C207.625 247.305 203.689 243.37 203.689 238.559V215.272C203.689 210.461 207.625 206.525 212.436 206.525C217.246 206.525 221.182 210.461 221.182 215.272V238.559C221.182 243.37 217.246 247.305 212.436 247.305Z" fill="white"></path>
<path d="M257.26 247.305C252.45 247.305 248.514 243.37 248.514 238.559V215.272C248.514 210.461 252.45 206.525 257.26 206.525C262.071 206.525 266.006 210.461 266.006 215.272V238.559C266.006 243.37 262.071 247.305 257.26 247.305Z" fill="white"></path>
<path d="M302.2 247.305C297.389 247.305 293.453 243.37 293.453 238.559V215.272C293.453 210.461 297.389 206.525 302.2 206.525C307.01 206.525 310.946 210.461 310.946 215.272V238.559C310.946 243.37 307.01 247.305 302.2 247.305Z" fill="white"></path>
<path d="M96.6492 145.296C92.3853 145.296 88.9961 141.907 88.9961 137.643V127.913C88.9961 123.649 92.3853 120.26 96.6492 120.26C100.913 120.26 104.302 123.649 104.302 127.913V137.643C104.302 141.907 100.913 145.296 96.6492 145.296Z" fill="#015F86"></path>
<path d="M122.563 172.087C118.299 172.087 114.91 168.698 114.91 164.434V101.022C114.91 96.7584 118.299 93.3691 122.563 93.3691C126.827 93.3691 130.216 96.7584 130.216 101.022V164.434C130.216 168.698 126.827 172.087 122.563 172.087Z" fill="#015F86"></path>
<path d="M148.581 157.979C144.317 157.979 140.928 154.59 140.928 150.326V115.122C140.928 110.858 144.317 107.469 148.581 107.469C152.845 107.469 156.234 110.858 156.234 115.122V150.326C156.234 154.59 152.735 157.979 148.581 157.979Z" fill="#015F86"></path>
<path d="M174.495 182.578C170.231 182.578 166.842 179.189 166.842 174.925V90.6316C166.842 86.3677 170.231 82.9785 174.495 82.9785C178.759 82.9785 182.148 86.3677 182.148 90.6316V174.925C182.148 179.08 178.759 182.578 174.495 182.578Z" fill="#015F86"></path>
<path d="M200.399 159.289C196.135 159.289 192.746 155.9 192.746 151.636V113.917C192.746 109.653 196.135 106.264 200.399 106.264C204.663 106.264 208.052 109.653 208.052 113.917V151.636C208.052 155.79 204.663 159.289 200.399 159.289Z" fill="#015F86"></path>
<path d="M226.417 149.564C222.153 149.564 218.764 146.175 218.764 141.911V123.653C218.764 119.389 222.153 116 226.417 116C230.681 116 234.07 119.389 234.07 123.653V141.911C234.07 146.175 230.571 149.564 226.417 149.564Z" fill="#015F86"></path>
</svg><style>@media (prefers-color-scheme: light) { :root { filter: none; } }
</style></svg>